<?xml version="1.0" encoding="UTF-8" standalone="no"?>
<!DOCTYPE svg PUBLIC "-//W3C//DTD SVG 1.1//EN" "http://www.w3.org/Graphics/SVG/1.1/DTD/svg11.dtd">
<svg width="100%" height="100%" viewBox="0 0 512 512" version="1.1" xmlns="http://www.w3.org/2000/svg" xmlnsXlink="http://www.w3.org/1999/xlink" xmlSpace="preserve" xmlnsSerif="http://www.serif.com/" style="fill-rule:evenodd;clip-rule:evenodd;stroke-linejoin:round;stroke-miterlimit:2;">
    <g id="Ears" transform="matrix(1.30139,0,0,1.37029,1.20832e-09,-94.7947)">
        <g transform="matrix(1.52,0,0,1.01034,170.179,-2.64825)">
            <path d="M146.873,225.654L146.873,286.346C146.873,299.506 139.395,310.19 130.185,310.19L107.503,310.19C98.292,310.19 90.815,299.506 90.815,286.346L90.815,225.654C90.815,212.494 98.292,201.81 107.503,201.81L130.185,201.81C139.395,201.81 146.873,212.494 146.873,225.654Z" style="fill:rgb(249,133,174);"/>
        </g>
        <g transform="matrix(1.51984,0,0,1.01034,-138.024,-2.64825)">
            <path d="M146.873,225.836L146.873,286.164C146.873,299.424 139.337,310.19 130.055,310.19L107.632,310.19C98.35,310.19 90.815,299.424 90.815,286.164L90.815,225.836C90.815,212.576 98.35,201.81 107.632,201.81L130.055,201.81C139.337,201.81 146.873,212.576 146.873,225.836Z" style="fill:rgb(249,133,174);"/>
        </g>
    </g>
    <g id="Head">
        <g transform="matrix(6.53112e-17,-1.27888,1.41567,8.35129e-17,-76.2558,620.673)">
            <path d="M285.15,73.997C186.903,73.997 107.258,145.945 107.258,234.698C107.258,323.45 186.903,395.399 285.15,395.399L285.15,363.258C206.553,363.258 142.837,305.7 142.837,234.698C142.837,163.696 206.553,106.137 285.15,106.137L285.15,73.997Z" style="fill:rgb(249,133,174);"/>
        </g>
        <g transform="matrix(9.49462e-17,1.27887,-1.41567,9.33111e-17,587.824,-108.669)">
            <path d="M285.15,73.997C186.903,73.997 107.258,145.945 107.258,234.698C107.258,323.45 186.903,395.399 285.15,395.399L285.15,363.258C206.553,363.258 142.837,305.7 142.837,234.698C142.837,163.696 206.553,106.137 285.15,106.137L285.15,73.997Z" style="fill:rgb(249,133,174);"/>
        </g>
    </g>
    <g id="Face" transform="matrix(1,0,0,1,0.215695,-17.9647)">
        <g id="Mouth" transform="matrix(1.17973,0,0,1.11383,-31.0121,-10.7273)">
            <path d="M179.761,306.826L242.92,306.826L306.079,306.826C306.079,343.772 277.802,373.723 242.92,373.723C208.038,373.723 179.761,343.772 179.761,306.826Z" style="fill:rgb(249,133,174);"/>
        </g>
        <g id="Eyes" transform="matrix(1.15151,0,0,1.20455,-43.4366,11.0643)">
            <g id="Eye-2" serifId="Eye 2" transform="matrix(0.704,0,0,0.606896,225.328,46.4447)">
                <path d="M146.873,232.893L146.873,279.107C146.873,296.262 134.314,310.19 118.844,310.19C103.374,310.19 90.815,296.262 90.815,279.107L90.815,232.893C90.815,215.738 103.374,201.81 118.844,201.81C134.314,201.81 146.873,215.738 146.873,232.893Z" style="fill:rgb(249,133,174);"/>
            </g>
            <g id="Eye-1" serifId="Eye 1" transform="matrix(0.704,0,0,0.606896,126.665,45.6145)">
                <path d="M146.873,232.893L146.873,279.107C146.873,296.262 134.314,310.19 118.844,310.19C103.374,310.19 90.815,296.262 90.815,279.107L90.815,232.893C90.815,215.738 103.374,201.81 118.844,201.81C134.314,201.81 146.873,215.738 146.873,232.893Z" style="fill:rgb(249,133,174);"/>
            </g>
        </g>
    </g>
</svg>
